<?xml version="1.0" encoding="UTF-8" standalone="no"?>
<!-- Created with Inkscape (http://www.inkscape.org/) -->

<svg
   xmlns:osb="http://www.openswatchbook.org/uri/2009/osb"
   xmlns:dc="http://purl.org/dc/elements/1.1/"
   xmlns:cc="http://creativecommons.org/ns#"
   xmlns:rdf="http://www.w3.org/1999/02/22-rdf-syntax-ns#"
   xmlns:svg="http://www.w3.org/2000/svg"
   xmlns="http://www.w3.org/2000/svg"
   xmlns:xlink="http://www.w3.org/1999/xlink"
   xmlns:sodipodi="http://sodipodi.sourceforge.net/DTD/sodipodi-0.dtd"
   xmlns:inkscape="http://www.inkscape.org/namespaces/inkscape"
   width="500"
   height="130"
   viewBox="0 0 132.29166 34.395835"
   version="1.1"
   id="svg8"
   inkscape:version="0.92.1 r15371"
   sodipodi:docname="500x130.svg"
   inkscape:export-filename="E:\enginkirmaci\SnapIt\documents\ads\500x130.png"
   inkscape:export-xdpi="96"
   inkscape:export-ydpi="96">
  <defs
     id="defs2">
    <linearGradient
       inkscape:collect="always"
       id="linearGradient6343">
      <stop
         style="stop-color:#ffffff;stop-opacity:1;"
         offset="0"
         id="stop6339" />
      <stop
         style="stop-color:#ececec;stop-opacity:1"
         offset="1"
         id="stop6341" />
    </linearGradient>
    <linearGradient
       id="linearGradient6173"
       osb:paint="solid">
      <stop
         style="stop-color:#ab47bc;stop-opacity:1;"
         offset="0"
         id="stop6171" />
    </linearGradient>
    <linearGradient
       id="linearGradient6143"
       osb:paint="solid">
      <stop
         style="stop-color:#000000;stop-opacity:1;"
         offset="0"
         id="stop6141" />
    </linearGradient>
    <rect
       height="312"
       width="864"
       y="0"
       id="SVGID_1_"
       x="0" />
    <linearGradient
       inkscape:collect="always"
       xlink:href="#linearGradient6343"
       id="linearGradient6331"
       x1="47.75729"
       y1="96.705208"
       x2="47.095833"
       y2="-3.4395833"
       gradientUnits="userSpaceOnUse"
       gradientTransform="matrix(1.6666667,0,0,0.51999997,0,31.749997)" />
  </defs>
  <sodipodi:namedview
     id="base"
     pagecolor="#ffffff"
     bordercolor="#666666"
     borderopacity="1.0"
     inkscape:pageopacity="0.0"
     inkscape:pageshadow="2"
     inkscape:zoom="1.4142136"
     inkscape:cx="377.28236"
     inkscape:cy="170.32627"
     inkscape:document-units="px"
     inkscape:current-layer="layer1"
     showgrid="false"
     units="px"
     showborder="true"
     borderlayer="false"
     inkscape:showpageshadow="false"
     inkscape:window-width="1718"
     inkscape:window-height="1361"
     inkscape:window-x="-8"
     inkscape:window-y="41"
     inkscape:window-maximized="0" />
  <metadata
     id="metadata5">
    <rdf:RDF>
      <cc:Work
         rdf:about="">
        <dc:format>image/svg+xml</dc:format>
        <dc:type
           rdf:resource="http://purl.org/dc/dcmitype/StillImage" />
        <dc:title></dc:title>
      </cc:Work>
    </rdf:RDF>
  </metadata>
  <g
     inkscape:groupmode="layer"
     id="layer3"
     inkscape:label="Layer 2"
     transform="translate(0,-31.75)">
    <rect
       style="fill:url(#linearGradient6331);fill-opacity:1;fill-rule:nonzero;stroke:none;stroke-width:0.22251275;stroke-opacity:1"
       id="rect6244"
       width="132.29167"
       height="34.395832"
       x="0"
       y="31.749998" />
    <flowRoot
       xml:space="preserve"
       id="flowRoot6309"
       style="font-style:normal;font-variant:normal;font-weight:normal;font-stretch:normal;font-size:40px;line-height:1.25;font-family:'Segoe UI';-inkscape-font-specification:'Segoe UI';letter-spacing:0px;word-spacing:0px;fill:#000000;fill-opacity:1;stroke:none"><flowRegion
         id="flowRegion6311"><rect
           id="rect6313"
           width="192.5"
           height="125"
           x="70.5"
           y="70.5" /></flowRegion><flowPara
         id="flowPara6315" /></flowRoot>  </g>
  <g
     inkscape:label="Layer 1"
     inkscape:groupmode="layer"
     id="layer1"
     transform="translate(0,-262.60415)"
     style="display:inline">
    <path
       style="fill:#ab47bc;fill-opacity:1;stroke-width:1.22115445"
       id="path10"
       d="m 63.092946,287.73957 h 6.105768 v -7.32693 h -6.105768 z m -7.326924,0 h 6.105767 v -15.875 h -6.105767 z m 14.65385,0 h 6.105773 v -7.32693 h -6.105773 z m -7.326926,-15.875 v 7.32693 h 13.432699 v -7.32693 z"
       inkscape:connector-curvature="0" />
    <text
       xml:space="preserve"
       style="font-style:normal;font-variant:normal;font-weight:normal;font-stretch:normal;font-size:10.58333302px;line-height:1.25;font-family:'Segoe UI';-inkscape-font-specification:'Segoe UI';letter-spacing:0px;word-spacing:0px;fill:#000000;fill-opacity:1;stroke:none;stroke-width:0.26458332"
       x="4.8331246"
       y="278.99881"
       id="text6223"><tspan
         sodipodi:role="line"
         id="tspan6221"
         x="4.8331246"
         y="278.99881"
         style="font-size:7.05555534px;fill:#000000;fill-opacity:1;stroke-width:0.26458332">SnapIt</tspan></text>
    <text
       xml:space="preserve"
       style="font-style:normal;font-variant:normal;font-weight:normal;font-stretch:normal;font-size:10.58333302px;line-height:1.25;font-family:'Segoe UI';-inkscape-font-specification:'Segoe UI';letter-spacing:0px;word-spacing:0px;fill:#000000;fill-opacity:1;stroke:none;stroke-width:0.26458332"
       x="5.0436196"
       y="284.63403"
       id="text4541"><tspan
         sodipodi:role="line"
         id="tspan4539"
         x="5.0436196"
         y="284.63403"
         style="font-style:normal;font-variant:normal;font-weight:300;font-stretch:normal;font-size:4.23333311px;font-family:'Segoe UI';-inkscape-font-specification:'Segoe UI Light';stroke-width:0.26458332">a window manager</tspan></text>
    <g
       id="g5781"
       transform="matrix(0.05449835,0,0,0.05449835,100.84079,274.57023)">
      <rect
         id="rect5741"
         height="186"
         width="474"
         y="3"
         x="3" />
      <path
         id="path5743"
         d="M 6,6 H 474 V 186 H 6 Z M 0,192 H 480 V 0 H 0 Z"
         inkscape:connector-curvature="0"
         style="fill:#d2d2d2" />
      <rect
         id="rect5745"
         height="53.200001"
         width="53.200001"
         y="40"
         x="296.60001"
         style="fill:#f25022" />
      <rect
         id="rect5747"
         height="53.200001"
         width="53.200001"
         y="40"
         x="355.39999"
         style="fill:#7fba00" />
      <rect
         id="rect5749"
         height="53.200001"
         width="53.200001"
         y="98.800003"
         x="296.60001"
         style="fill:#00a4ef" />
      <rect
         id="rect5751"
         height="53.200001"
         width="53.200001"
         y="98.800003"
         x="355.39999"
         style="fill:#ffb900" />
      <g
         id="g5761">
        <g
           id="g5759">
          <path
             id="path5753"
             d="m 145.7,134.6 c -9,5.1 -19.1,7.7 -30.6,7.7 -8.6,0 -16.3,-1.9 -23,-5.7 -6.7,-3.8 -11.8,-9.1 -15.4,-16 -3.6,-6.9 -5.4,-14.7 -5.4,-23.4 0,-9.2 2,-17.4 5.9,-24.6 3.9,-7.2 9.5,-12.8 16.7,-16.9 7.2,-4.1 15.4,-6.1 24.7,-6.1 4.6,0 9.2,0.4 13.7,1.3 4.5,0.9 8.3,2 11.1,3.3 v 13.5 c -6.8,-4.5 -15.5,-6.8 -25.9,-6.8 -6.3,0 -11.9,1.5 -16.9,4.5 -5,3 -8.9,7.2 -11.7,12.6 -2.8,5.4 -4.2,11.5 -4.2,18.2 0,10.8 2.8,19.2 8.4,25.4 5.6,6.2 13.3,9.3 23.2,9.3 6.3,0 11.8,-1.3 16.6,-3.8 V 104 H 114 V 93 h 31.8 v 41.6 z"
             inkscape:connector-curvature="0"
             style="fill:#ffffff" />
          <path
             id="path5755"
             d="m 216.9,112.2 h -44.4 c 0.2,6.5 2.1,11.4 5.6,14.9 3.5,3.5 8.1,5.2 13.9,5.2 7.6,0 14.3,-2.2 20.1,-6.6 v 10.9 c -2.5,1.8 -5.7,3.1 -9.6,4.2 -3.9,1 -7.9,1.6 -12.1,1.6 -9.7,0 -17.2,-2.9 -22.6,-8.7 -5.3,-5.8 -8,-13.9 -8,-24.4 0,-6.5 1.3,-12.3 3.9,-17.5 2.6,-5.2 6.2,-9.2 10.9,-12.2 4.6,-2.9 9.8,-4.4 15.5,-4.4 8.3,0 14.8,2.7 19.6,8.1 4.8,5.4 7.2,12.9 7.2,22.6 z m -12.4,-9.8 c 0,-5.5 -1.3,-9.8 -3.9,-12.7 -2.6,-2.9 -6.2,-4.4 -10.8,-4.4 -4.3,0 -7.9,1.6 -11.1,4.7 -3.1,3.1 -5.2,7.3 -6,12.5 h 31.8 z"
             inkscape:connector-curvature="0"
             style="fill:#ffffff" />
          <path
             id="path5757"
             d="m 263,140.1 c -1.1,0.7 -2.7,1.2 -4.8,1.6 -2.1,0.4 -3.9,0.6 -5.5,0.6 -11.8,0 -17.8,-6.5 -17.8,-19.6 V 86.9 H 224.1 V 76.8 h 10.8 V 61.6 l 12.3,-3.9 V 76.8 H 263 V 87 h -15.8 v 33.6 c 0,4.3 0.7,7.2 2.1,8.9 1.4,1.7 3.8,2.6 7.3,2.6 2.4,0 4.5,-0.7 6.5,-2 v 10 z"
             inkscape:connector-curvature="0"
             style="fill:#ffffff" />
        </g>
      </g>
    </g>
  </g>
</svg>
